<svg width="0" height="0" class="hidden">
  <symbol xmlns="http://www.w3.org/2000/svg" viewBox="-36 0 511 512" id="icon__settings-1">
    <path d="M82.672 287.363V0h-30v287.363C22.832 294.2.5 320.945.5 352.828s22.332 58.625 52.172 65.461V512h30v-93.71c29.84-6.833 52.172-33.58 52.172-65.462s-22.332-58.629-52.172-65.465zM67.672 390C47.176 390 30.5 373.324 30.5 352.828c0-20.5 16.676-37.172 37.172-37.172s37.172 16.672 37.172 37.172c0 20.496-16.676 37.172-37.172 37.172zM234.77 82.07V0h-30v82.07c-29.84 6.836-52.176 33.582-52.176 65.465 0 31.88 22.336 58.63 52.176 65.461V512h30V213c29.835-6.836 52.171-33.582 52.171-65.465 0-31.883-22.336-58.629-52.171-65.465zm-15 102.637c-20.5 0-37.176-16.676-37.176-37.172s16.676-37.172 37.176-37.172c20.496 0 37.171 16.676 37.171 37.172s-16.675 37.172-37.171 37.172zm219.265 108.125c0-31.883-22.332-58.629-52.172-65.465V0h-30v227.367c-29.836 6.836-52.172 33.582-52.172 65.461 0 31.883 22.336 58.629 52.172 65.465V512h30V358.293c29.84-6.836 52.172-33.582 52.172-65.461zm-67.172 37.172c-20.496 0-37.172-16.676-37.172-37.172s16.676-37.176 37.172-37.176 37.172 16.68 37.172 37.176c0 20.496-16.672 37.172-37.172 37.172zm0 0"></path>
  </symbol>
  <symbol xmlns="http://www.w3.org/2000/svg" viewBox="0 0 512 512" id="icon__tuning-fork">
    <path d="M509.071 121.751l-34.79-34.791a10.001 10.001 0 00-14.142 0L267.216 279.883c-4.688 4.689-10.919 7.27-17.549 7.27h-.011c-13.674-.006-24.803-11.135-24.809-24.809-.003-6.633 2.579-12.869 7.27-17.56L425.04 51.861c3.905-3.905 3.905-10.237 0-14.142l-34.791-34.79c-3.904-3.904-10.237-3.904-14.142 0l-84.028 84.027c-3.905 3.905-3.905 10.237 0 14.142 3.905 3.904 10.238 3.904 14.142 0l76.957-76.956 20.648 20.647-185.851 185.852c-8.47 8.471-13.132 19.732-13.127 31.71.01 24.693 20.107 44.791 44.8 44.801h.02c11.972 0 23.226-4.661 31.691-13.127L467.21 108.174l20.648 20.648-221.693 221.692-47.28-.001-11.305-11.303c-3.905-3.904-10.237-3.904-14.142 0l-93.294 93.293a53.676 53.676 0 00-20.648-20.647l93.294-93.294a10.003 10.003 0 000-14.142l-11.304-11.304v-47.279l81.098-81.099c3.905-3.905 3.905-10.237 0-14.143-3.905-3.904-10.237-3.904-14.143 0l-84.027 84.027a10.003 10.003 0 00-2.929 7.071v55.564c0 2.652 1.054 5.196 2.929 7.071l7.162 7.161-93.789 93.79a54.663 54.663 0 00-4.334-.187c-14.278 0-27.702 5.561-37.797 15.656C5.56 430.845 0 444.268 0 458.546s5.56 27.701 15.656 37.798C25.752 506.439 39.176 512 53.454 512s27.701-5.56 37.797-15.656c10.096-10.097 15.656-23.52 15.656-37.798 0-1.455-.073-2.898-.187-4.333l93.789-93.789 7.163 7.162a10.001 10.001 0 007.071 2.929l55.564.001c2.652 0 5.196-1.054 7.071-2.929l231.693-231.692c3.905-3.907 3.906-10.239 0-14.144zM77.109 482.201C70.79 488.519 62.39 492 53.454 492s-17.337-3.48-23.656-9.799C23.48 475.883 20 467.481 20 458.546s3.48-17.336 9.799-23.654c6.318-6.318 14.719-9.799 23.655-9.799 8.935 0 17.336 3.48 23.655 9.799 6.319 6.318 9.798 14.719 9.798 23.654 0 8.936-3.479 17.337-9.798 23.655z"></path>
    <path d="M267.33 135.849c2.63 0 5.21-1.07 7.07-2.93 1.87-1.86 2.93-4.44 2.93-7.07s-1.06-5.21-2.93-7.07a10.02 10.02 0 00-7.07-2.93c-2.63 0-5.21 1.061-7.07 2.93a10.06 10.06 0 00-2.93 7.07c0 2.63 1.07 5.21 2.93 7.07s4.44 2.93 7.07 2.93z"></path>
  </symbol>
  <symbol id="icon__settings-2" xmlns="http://www.w3.org/2000/svg" 
	 viewBox="0 0 456.556 456.556">
	<path d="M97.564,79.443H13.428C6.011,79.443,0,73.428,0,66.015s6.011-13.428,13.428-13.428h84.136
		c7.417,0,13.428,6.015,13.428,13.428S104.981,79.443,97.564,79.443z"/>
	<path d="M145.643,127.518c-33.916,0-61.507-27.591-61.507-61.504c0-33.92,27.591-61.511,61.507-61.511s61.507,27.591,61.507,61.511
		C207.15,99.928,179.559,127.518,145.643,127.518z M145.643,31.36c-19.107,0-34.651,15.547-34.651,34.654
		s15.544,34.647,34.651,34.647s34.651-15.54,34.651-34.647S164.75,31.36,145.643,31.36z"/>
	<path d="M443.128,79.443H242.433c-7.417,0-13.428-6.015-13.428-13.428s6.011-13.428,13.428-13.428h200.694
		c7.417,0,13.428,6.015,13.428,13.428S450.545,79.443,443.128,79.443z"/>
	<path d="M325.936,289.782c-33.917,0-61.507-27.591-61.507-61.504s27.591-61.504,61.507-61.504s61.507,27.591,61.507,61.504
		S359.853,289.782,325.936,289.782z M325.936,193.631c-19.107,0-34.651,15.54-34.651,34.647s15.544,34.647,34.651,34.647
		s34.651-15.54,34.651-34.647S345.043,193.631,325.936,193.631z"/>
	<path d="M229.149,241.706H13.428C6.011,241.706,0,235.691,0,228.278s6.011-13.428,13.428-13.428h215.721
		c7.417,0,13.428,6.015,13.428,13.428S236.566,241.706,229.149,241.706z"/>
	<path d="M443.128,241.706h-69.113c-7.417,0-13.428-6.015-13.428-13.428s6.011-13.428,13.428-13.428h69.113
		c7.417,0,13.428,6.015,13.428,13.428S450.545,241.706,443.128,241.706z"/>
	<path d="M130.62,452.052c-33.916,0-61.507-27.591-61.507-61.511c0-33.913,27.591-61.504,61.507-61.504s61.507,27.591,61.507,61.504
		C192.127,424.461,164.536,452.052,130.62,452.052z M130.62,355.894c-19.107,0-34.651,15.54-34.651,34.647
		s15.544,34.654,34.651,34.654s34.651-15.547,34.651-34.654S149.727,355.894,130.62,355.894z"/>
	<path d="M443.128,403.97H227.407c-7.417,0-13.428-6.015-13.428-13.428c0-7.413,6.011-13.428,13.428-13.428h215.721
		c7.417,0,13.428,6.015,13.428,13.428C456.556,397.955,450.545,403.97,443.128,403.97z"/>
	<path d="M82.541,403.97H13.428C6.011,403.97,0,397.955,0,390.541c0-7.413,6.011-13.428,13.428-13.428h69.113
		c7.417,0,13.428,6.015,13.428,13.428C95.969,397.955,89.958,403.97,82.541,403.97z"/>
</symbol>
</svg>