<svg viewBox="0 0 512 512" xmlns="http://www.w3.org/2000/svg">
<path id="XMLID_228_" d="m509.071 121.751-34.79-34.791c-1.875-1.875-4.419-2.929-7.071-2.929s-5.196 1.054-7.071 2.929l-192.923 192.923c-4.688 4.689-10.919 7.27-17.549 7.27-.003 0-.008 0-.011 0-13.674-.006-24.803-11.135-24.809-24.809-.003-6.633 2.579-12.869 7.27-17.56l192.923-192.923c3.905-3.905 3.905-10.237 0-14.142l-34.791-34.79c-3.904-3.904-10.237-3.904-14.142 0l-84.028 84.027c-3.905 3.905-3.905 10.237 0 14.142 3.905 3.904 10.238 3.904 14.142 0l76.957-76.956 20.648 20.647-185.851 185.852c-8.47 8.471-13.132 19.732-13.127 31.71.01 24.693 20.107 44.791 44.8 44.801h.02c11.972 0 23.226-4.661 31.691-13.127l185.851-185.851 20.648 20.648-221.693 221.692-47.28-.001-11.305-11.303c-3.905-3.904-10.237-3.904-14.142 0l-93.294 93.293c-2.381-4.254-5.351-8.212-8.893-11.754s-7.5-6.512-11.755-8.893l93.294-93.294c1.875-1.876 2.929-4.419 2.929-7.071s-1.054-5.196-2.929-7.071l-11.304-11.304v-47.279l81.098-81.099c3.905-3.905 3.905-10.237 0-14.143-3.905-3.904-10.237-3.904-14.143 0l-84.027 84.027c-1.875 1.876-2.929 4.419-2.929 7.071v55.564c0 2.652 1.054 5.196 2.929 7.071l7.162 7.161-93.789 93.79c-1.435-.114-2.878-.187-4.334-.187-14.278 0-27.702 5.561-37.797 15.656-10.096 10.097-15.656 23.52-15.656 37.798s5.56 27.701 15.656 37.798c10.096 10.095 23.52 15.656 37.798 15.656s27.701-5.56 37.797-15.656c10.096-10.097 15.656-23.52 15.656-37.798 0-1.455-.073-2.898-.187-4.333l93.789-93.789 7.163 7.162c1.876 1.875 4.418 2.929 7.071 2.929l55.564.001c2.652 0 5.196-1.054 7.071-2.929l231.693-231.692c3.905-3.907 3.906-10.239 0-14.144zm-431.962 360.45c-6.319 6.318-14.719 9.799-23.655 9.799s-17.337-3.48-23.656-9.799c-6.318-6.318-9.798-14.72-9.798-23.655s3.48-17.336 9.799-23.654c6.318-6.318 14.719-9.799 23.655-9.799 8.935 0 17.336 3.48 23.655 9.799 6.319 6.318 9.798 14.719 9.798 23.654 0 8.936-3.479 17.337-9.798 23.655z"/><path id="XMLID_233_" d="m267.33 135.849c2.63 0 5.21-1.07 7.07-2.93 1.87-1.86 2.93-4.44 2.93-7.07s-1.06-5.21-2.93-7.07c-1.86-1.869-4.43-2.93-7.07-2.93-2.63 0-5.21 1.061-7.07 2.93-1.86 1.86-2.93 4.431-2.93 7.07 0 2.63 1.07 5.21 2.93 7.07s4.44 2.93 7.07 2.93z"/>
</svg>